<?xml version="1.0" encoding="UTF-8"?>
<svg version="1.1" xmlns="http://www.w3.org/2000/svg" viewBox="503.00 148.64 402.00 352.76">
  <path d="M0 0 C1.17844482 0.00572021 2.35688965 0.01144043 3.57104492 0.01733398 C10.10666303 0.1506773 16.25751311 0.54380105 22.5 2.5625 C24.92086943 3.47801948 27.31922177 4.45594877 29.6875 5.5 C30.59628906 5.88551025 30.59628906 5.88551025 31.5234375 6.27880859 C39.20221327 9.57752319 45.86328192 13.64503587 52.1640625 19.1328125 C59.41951373 25.93900979 65.21802526 33.05411943 69.8984375 41.83984375 C72.7637135 47.51418408 74.82971016 53.430217 76.6875 59.5 C77.05681641 60.61181641 77.05681641 60.61181641 77.43359375 61.74609375 C79.47143845 68.95584777 79.14156091 76.757604 78.83544922 84.18652344 C78.20716486 94.01098322 75.83412065 103.22534662 72.10449219 112.31542969 C69.86760006 117.45168881 67.08384674 122.05584416 63.6875 126.5 C63.16542969 126.13648438 62.64335938 125.77296875 62.10546875 125.3984375 C52.78293455 119.03103235 43.4300666 114.032372 32.6875 110.5 C32.6875 109.84 32.6875 109.18 32.6875 108.5 C33.3475 108.5 34.0075 108.5 34.6875 108.5 C35.05875 107.51 35.05875 107.51 35.4375 106.5 C36.70517293 103.45758497 38.15503174 100.57543767 39.6875 97.66015625 C40.94904149 94.93502951 41.90767419 92.41247988 42.6875 89.5 C43.45190407 81.93761918 43.6093255 73.76344294 42 66.3203125 C41.06915294 63.89235308 39.99508191 61.7456298 38.6875 59.5 C38.25179687 58.65308594 37.81609375 57.80617188 37.3671875 56.93359375 C35.02960517 52.64802615 32.51744125 49.02204205 28.9375 45.6875 C24.59883993 42.17011593 19.86085996 39.5833893 14.6875 37.5 C8.97192538 35.58585339 3.82812405 35.11196533 -2.17578125 35.13208008 C-6.47273652 35.23643753 -10.21589682 35.77428633 -14.3125 37.1875 C-18.96180039 39.16711216 -23.20462146 41.56450273 -27.3125 44.5 C-28.8284375 45.551875 -28.8284375 45.551875 -30.375 46.625 C-33.87467343 49.66569986 -36.20876134 53.52039693 -38.69921875 57.390625 C-40.74218855 61.32816486 -42.25855347 65.18787831 -43.3125 69.5 C-43.71666244 72.61914425 -43.79103117 75.66990042 -43.75 78.8125 C-43.73755249 80.05471313 -43.73755249 80.05471313 -43.72485352 81.32202148 C-43.59424912 86.09303271 -43.1318839 90.4641622 -41.75 95.0625 C-39.45540557 100.82716532 -36.31701383 105.77336072 -32.3125 110.5 C-29.83986466 113.18218071 -27.32964133 115.44499733 -24.3125 117.5 C-19.78159443 119.89286508 -15.17197875 121.88017375 -10.3125 123.5 C-8.72777813 123.61370991 -7.13923519 123.67796131 -5.55078125 123.7109375 C7.96064104 124.0846895 21.15750597 124.57452952 34 129.25 C40.7942753 132.28356439 46.85460509 136.1160338 52.546875 140.90625 C58.14357188 146.16281613 62.41155371 151.51819737 66.10644531 158.21679688 C69.75036396 165.2121972 72.44294391 172.69847713 73.6875 180.5 C74.315693 190.01557922 73.90472559 199.1139849 71.59179688 208.38793945 C69.66063166 215.333514 66.73281827 221.51961807 62.6875 227.5 C56.59171676 235.29514728 49.46358322 242.18129919 41.1875 247.625 C33.89355229 251.85617029 25.54256515 254.10147941 17.3815918 256.05078125 C12.26244693 256.90435864 7.06753253 256.68591305 1.88964844 256.68530273 C-0.14670774 256.68745685 -2.18249184 256.70554421 -4.21875 256.72460938 C-21.4475438 256.80123119 -37.92673421 253.75044216 -54.3125 248.5 C-75.98159385 240.84658682 -96.16813111 230.16964383 -114.33496094 216.08886719 C-119.23948521 212.14829386 -123.76175926 207.83973266 -128.3125 203.5 C-129.65986637 202.34617797 -131.01338005 201.19946636 -132.375 200.0625 C-146.93653515 187.37014742 -158.52459872 171.03864453 -168.3125 154.5 C-178.62930005 136.35761383 -186.47684868 117.84549761 -191.3125 97.5 C-191.3125 96.84 -191.3125 96.18 -191.3125 95.5 C-179.4325 95.5 -167.5525 95.5 -155.3125 95.5 C-152.8375 102.925 -152.8375 102.925 -150.3125 110.5 C-149.13136559 113.50785781 -147.95125222 116.4385775 -146.625 119.375 C-146.29105225 120.11766113 -145.95710449 120.86032227 -145.61303711 121.62548828 C-138.17594301 137.75310017 -128.47577859 152.17125905 -116.4140625 165.20703125 C-114.5556516 167.23470262 -112.81022251 169.31526552 -111.0625 171.4375 C-101.28669535 182.57789066 -88.41470324 191.6067362 -75.67675781 199.03759766 C-59.06106789 208.40824278 -41.9564054 215.72989463 -23.17871094 219.41796875 C-11.77814696 221.33656775 0.50319812 221.8953832 11.96289062 220.15429688 C17.09824724 219.07078199 21.50868359 217.12155775 26.125 214.6875 C30.37355548 211.06068435 33.60286503 207.23541595 36.5625 202.5 C37.95237707 198.81308059 38.00314783 195.09856149 38.125 191.1875 C38.04428148 187.47444803 37.83957796 184.12466429 36.9609375 180.515625 C35.54314344 176.71178728 33.73802011 173.57650188 31.5 170.1875 C28.55917012 167.37737367 25.71418309 165.51455441 22.1640625 163.578125 C19.03830982 162.21738724 16.03908711 161.10937947 12.6875 160.5 C8.71054146 160.22106972 4.73539379 160.18465799 0.75 160.125 C-9.46368965 159.81798267 -18.67981816 159.08641695 -28.3125 155.5 C-37.59828932 151.51210992 -45.79408795 146.26924644 -53.3125 139.5 C-53.99570312 138.90960938 -54.67890625 138.31921875 -55.3828125 137.7109375 C-61.62008445 131.96286335 -66.25337947 124.90204435 -70.3125 117.5 C-72.17892247 113.56329825 -73.79745627 109.58270819 -75.3125 105.5 C-75.66183594 104.65695312 -76.01117187 103.81390625 -76.37109375 102.9453125 C-78.6256596 97.08905431 -79.29646248 91.06961378 -79.54296875 84.828125 C-79.75028652 76.04546745 -79.57286775 67.49819961 -77.4140625 58.93359375 C-74.51202624 49.88788498 -70.89327972 41.34023283 -65.375 33.5625 C-64.04275765 31.85763815 -62.68925805 30.16911979 -61.3125 28.5 C-60.68601562 27.71109375 -60.05953125 26.9221875 -59.4140625 26.109375 C-54.45008646 20.15260375 -48.88343163 15.60077797 -42.3125 11.5 C-39.72253784 9.9906725 -37.09764593 8.56904934 -34.4375 7.1875 C-33.52097656 6.69914673 -33.52097656 6.69914673 -32.5859375 6.20092773 C-22.34828854 1.11515352 -11.28999338 -0.06439315 0 0 Z " transform="translate(704.3125,234.5)" style="fill: #113152;"/>
  <path d="M0 0 C1.21789215 0.00273422 1.21789215 0.00273422 2.46038818 0.00552368 C24.93182186 0.09026426 45.86308633 3.30719074 67.11962891 10.70361328 C88.04499997 18.2539164 106.59303421 28.4444345 124 42.3125 C136.26270915 52.33998115 147.09488187 62.85444202 156.64453125 75.51708984 C157.51337029 76.66792599 158.38788469 77.8145123 159.26953125 78.95556641 C172.57328938 96.20293855 181.92836704 115.78473925 189 136.3125 C193 148.41702518 193 148.41702518 193 153.3125 C181.12 153.3125 169.24 153.3125 157 153.3125 C155.7625 149.3525 155.7625 149.3525 154.5 145.3125 C151.51102782 136.14676419 147.58203055 127.77399771 143 119.3125 C142.52457764 118.40806152 142.52457764 118.40806152 142.03955078 117.48535156 C134.32144677 102.81735296 123.8136593 89.90490013 112 78.3125 C108.47160198 75.10948738 104.8062832 72.17749965 101 69.3125 C100.48244141 68.91466309 99.96488281 68.51682617 99.43164062 68.10693359 C85.83677137 57.69963076 70.80981296 49.68965323 54.60302734 44.13427734 C41.32718933 39.94308706 27.48511431 36.1869159 13.515625 36.109375 C12.29392609 36.10082489 12.29392609 36.10082489 11.04754639 36.09210205 C9.32288902 36.08268309 7.59821391 36.07613045 5.87353516 36.07226562 C3.2994599 36.06268411 0.72622775 36.03168467 -1.84765625 36 C-16.40898784 35.90449605 -30.36784363 37.42538035 -44.25244141 42.01342773 C-45.17976074 42.33899658 -46.10708008 42.66456543 -47.0625 43 C-48.58109619 43.52219116 -48.58109619 43.52219116 -50.13037109 44.05493164 C-67.88016242 50.30262216 -83.48497435 58.96038099 -98.30859375 70.51342773 C-107.64919255 77.94383974 -115.71351746 85.84529599 -123 95.3125 C-123.73992187 96.23675781 -124.47984375 97.16101563 -125.2421875 98.11328125 C-134.71234576 110.22132097 -142.20706775 124.08261366 -148 138.3125 C-149.65 143.2625 -151.3 148.2125 -153 153.3125 C-164.55 153.3125 -176.1 153.3125 -188 153.3125 C-187.28585495 146.17104951 -186.49793475 140.66795409 -184.125 134.125 C-183.82182861 133.2784082 -183.51865723 132.43181641 -183.20629883 131.55957031 C-175.30199474 110.18816945 -164.41801156 89.9972842 -150 72.3125 C-147.46886688 69.424166 -144.89440038 66.58795772 -142.27734375 63.77734375 C-140.40465597 61.75047242 -138.62602154 59.6931468 -136.875 57.5625 C-133.6035507 53.71854708 -129.85644444 50.55348471 -126 47.3125 C-124.72189453 46.18521484 -124.72189453 46.18521484 -123.41796875 45.03515625 C-107.58388639 31.32383733 -89.19574775 20.82943385 -69.8125 13 C-57.5477161 8.17990145 -44.99528305 4.58988829 -32 2.3125 C-31.03578125 2.14113525 -30.0715625 1.96977051 -29.078125 1.79321289 C-19.35109119 0.22363608 -9.83369549 -0.04587667 0 0 Z " transform="translate(702,158.6875)" style="fill: #113151;"/>
  <path d="M0 0 C11.55 0 23.1 0 35 0 C30.34275092 19.79330858 30.34275092 19.79330858 27.25 27.5625 C26.90638428 28.44180176 26.56276855 29.32110352 26.20874023 30.22705078 C22.95004723 38.40680807 19.24289039 46.28675118 15 54 C14.65888184 54.62036133 14.31776367 55.24072266 13.96630859 55.87988281 C2.77542576 75.92652248 -12.21649705 94.36304449 -29 110 C-32.55070295 113.15679684 -36.22596028 116.11696087 -40 119 C-40.63260742 119.48726563 -41.26521484 119.97453125 -41.91699219 120.4765625 C-53.33632287 129.20361805 -65.24690099 136.3904805 -78 143 C-78 142.01 -78 141.02 -78 140 C-77.20335937 138.51113281 -77.20335937 138.51113281 -76.390625 136.9921875 C-71.44446991 127.56409092 -67.2976534 118.36968367 -65.64941406 107.73876953 C-64.97474812 102.83693108 -64.45331438 97.92681152 -64 93 C-54.57023542 84.47842996 -54.57023542 84.47842996 -49.8125 80.375 C-36.50699849 68.68630246 -25.77340419 54.35980567 -17 39 C-10.45194303 26.79187796 -5.24704351 14.17274064 -1 1 C-0.67 0.67 -0.34 0.34 0 0 Z " transform="translate(860,330)" style="fill: #113050;"/>
</svg>